<svg width="172" height="57" viewBox="0 0 172 57" fill="none" xmlns="http://www.w3.org/2000/svg">
<g id="Kromsystems_logo 2" clip-path="url(#clip0_965_261)">
<g id="Group">
<g id="Group_2">
<path id="Vector" d="M5.382 38.0739C5.264 38.0509 5.12 38.0229 4.954 37.9999C4.793 37.9769 4.623 37.9529 4.443 37.9339C4.271 37.9139 4.093 37.8969 3.92 37.8849C3.744 37.8709 3.59 37.8649 3.449 37.8649C3.209 37.8649 2.98 37.8769 2.778 37.8959C2.576 37.9169 2.4 37.9599 2.254 38.0229C2.106 38.0889 1.988 38.1809 1.91 38.2999C1.826 38.4169 1.787 38.5709 1.787 38.7549C1.787 38.9799 1.887 39.1909 2.09 39.3919C2.287 39.5969 2.539 39.8019 2.838 40.0069C3.141 40.2099 3.467 40.4229 3.817 40.6459C4.168 40.8709 4.497 41.1129 4.796 41.3749C5.098 41.6349 5.349 41.9219 5.549 42.2359C5.748 42.5489 5.847 42.8999 5.847 43.2809C5.847 43.6479 5.781 43.9609 5.646 44.2169C5.515 44.4749 5.322 44.6839 5.08 44.8419C4.83 44.9999 4.537 45.1129 4.19 45.1839C3.843 45.2499 3.462 45.2879 3.047 45.2879C2.534 45.2879 2.058 45.2389 1.623 45.1469C1.185 45.0529 0.815 44.9579 0.505 44.8599L0.665 43.9069C0.97 43.9969 1.329 44.0889 1.729 44.1819C2.135 44.2739 2.571 44.3209 3.036 44.3209C3.466 44.3209 3.823 44.2549 4.102 44.1259C4.385 43.9969 4.524 43.7509 4.524 43.3939C4.524 43.1419 4.424 42.9019 4.223 42.6729C4.026 42.4429 3.772 42.2179 3.469 41.9989C3.162 41.7779 2.832 41.5559 2.481 41.3269C2.132 41.0999 1.807 40.8579 1.498 40.6059C1.192 40.3519 0.942 40.0849 0.741 39.7989C0.542 39.5139 0.441 39.1949 0.441 38.8439C0.441 38.4789 0.522 38.1699 0.679 37.9219C0.838 37.6719 1.054 37.4729 1.325 37.3219C1.591 37.1719 1.909 37.0619 2.274 36.9979C2.643 36.9319 3.037 36.8999 3.449 36.8999C3.631 36.8999 3.816 36.9039 4.012 36.9179C4.208 36.9319 4.398 36.9449 4.579 36.9609C4.765 36.9789 4.933 36.9979 5.089 37.0199C5.246 37.0469 5.378 37.0709 5.491 37.0959L5.382 38.0739ZM15.889 42.3769L12.795 37.0199H14.324L16.707 41.1679C16.982 40.8979 17.24 40.5999 17.477 40.2699C17.711 39.9379 17.92 39.5959 18.106 39.2429C18.287 38.8879 18.443 38.5199 18.567 38.1389C18.684 37.7619 18.78 37.3889 18.846 37.0199H20.143C20.075 37.5099 19.955 38.0079 19.776 38.5139C19.597 39.0199 19.374 39.5059 19.108 39.9689C18.846 40.4339 18.545 40.8709 18.217 41.2829C17.885 41.6949 17.533 42.0529 17.17 42.3529V45.1539H15.889V42.3769ZM32.552 38.0739C32.432 38.0509 32.289 38.0229 32.123 37.9999C31.962 37.9769 31.792 37.9529 31.615 37.9339C31.439 37.9139 31.267 37.8969 31.09 37.8849C30.916 37.8709 30.76 37.8649 30.619 37.8649C30.377 37.8649 30.15 37.8769 29.947 37.8959C29.745 37.9169 29.569 37.9599 29.422 38.0229C29.276 38.0889 29.16 38.1809 29.079 38.2999C28.996 38.4169 28.955 38.5709 28.955 38.7549C28.955 38.9799 29.057 39.1909 29.258 39.3919C29.457 39.5969 29.709 39.8019 30.008 40.0069C30.311 40.2099 30.637 40.4229 30.986 40.6459C31.337 40.8709 31.665 41.1129 31.965 41.3749C32.269 41.6349 32.52 41.9219 32.719 42.2359C32.918 42.5489 33.018 42.8999 33.018 43.2809C33.018 43.6479 32.95 43.9609 32.815 44.2169C32.684 44.4749 32.491 44.6839 32.247 44.8419C32 44.9999 31.707 45.1129 31.359 45.1839C31.015 45.2499 30.632 45.2879 30.217 45.2879C29.704 45.2879 29.228 45.2389 28.794 45.1469C28.355 45.0529 27.984 44.9579 27.673 44.8599L27.834 43.9069C28.14 43.9969 28.497 44.0889 28.899 44.1819C29.305 44.2739 29.739 44.3209 30.204 44.3209C30.636 44.3209 30.991 44.2549 31.274 44.1259C31.555 43.9969 31.694 43.7509 31.694 43.3939C31.694 43.1419 31.594 42.9019 31.395 42.6729C31.196 42.4429 30.942 42.2179 30.639 41.9989C30.331 41.7779 30.001 41.5559 29.651 41.3269C29.301 41.0999 28.975 40.8579 28.67 40.6059C28.362 40.3519 28.112 40.0849 27.913 39.7989C27.711 39.5139 27.61 39.1949 27.61 38.8439C27.61 38.4789 27.69 38.1699 27.849 37.9219C28.007 37.6719 28.223 37.4729 28.494 37.3219C28.761 37.1719 29.078 37.0619 29.444 36.9979C29.811 36.9319 30.204 36.8999 30.618 36.8999C30.799 36.8999 30.984 36.9039 31.181 36.9179C31.378 36.9319 31.568 36.9449 31.748 36.9609C31.934 36.9789 32.102 36.9979 32.259 37.0199C32.415 37.0469 32.548 37.0709 32.663 37.0959L32.552 38.0739ZM47.057 37.0199V37.9889H44.391V45.1549H43.108V37.9889H40.442V37.0199H47.057ZM60.018 37.0199V37.9889H56.424V40.5069H59.663V41.4739H56.424V43.2339C56.424 43.5929 56.524 43.8409 56.725 43.9799C56.922 44.1189 57.194 44.1869 57.534 44.1869H60.179V45.1559H57.489C56.756 45.1559 56.181 45.0019 55.767 44.6969C55.347 44.3919 55.142 43.8999 55.142 43.2219V37.0199H60.018ZM70.275 37.0199L73.2 41.4129L76.135 37.0199H77.526V45.1549H76.27V38.7569L73.717 42.5989H72.69L70.156 38.7569V45.1549H68.869V37.0199H70.275ZM91.135 38.0739C91.013 38.0509 90.869 38.0229 90.705 37.9999C90.541 37.9769 90.375 37.9529 90.2 37.9339C90.025 37.9149 89.851 37.8969 89.674 37.8849C89.5 37.8709 89.342 37.8649 89.207 37.8649C88.959 37.8649 88.736 37.8769 88.533 37.8959C88.326 37.9169 88.152 37.9599 88.006 38.0229C87.86 38.0889 87.745 38.1809 87.66 38.2999C87.582 38.4169 87.541 38.5709 87.541 38.7549C87.541 38.9799 87.643 39.1909 87.841 39.3919C88.039 39.5969 88.291 39.8019 88.594 40.0069C88.895 40.2099 89.222 40.4229 89.573 40.6459C89.921 40.8709 90.249 41.1129 90.547 41.3749C90.849 41.6349 91.101 41.9219 91.3 42.2359C91.503 42.5489 91.602 42.8999 91.602 43.2809C91.602 43.6479 91.535 43.9609 91.4 44.2169C91.264 44.4749 91.078 44.6839 90.83 44.8419C90.588 44.9999 90.289 45.1129 89.943 45.1839C89.599 45.2499 89.22 45.2879 88.801 45.2879C88.288 45.2879 87.814 45.2389 87.374 45.1469C86.94 45.0529 86.567 44.9579 86.259 44.8599L86.417 43.9069C86.728 43.9969 87.086 44.0889 87.487 44.1819C87.887 44.2739 88.325 44.3209 88.788 44.3209C89.223 44.3209 89.579 44.2549 89.86 44.1259C90.141 43.9969 90.28 43.7509 90.28 43.3939C90.28 43.1419 90.18 42.9019 89.983 42.6729C89.779 42.4429 89.528 42.2179 89.222 41.9989C88.914 41.7779 88.589 41.5559 88.239 41.3269C87.887 41.0999 87.559 40.8579 87.257 40.6059C86.948 40.3519 86.694 40.0849 86.498 39.7989C86.298 39.5139 86.197 39.1949 86.197 38.8439C86.197 38.4789 86.278 38.1699 86.436 37.9219C86.596 37.6719 86.805 37.4729 87.079 37.3219C87.349 37.1719 87.661 37.0619 88.033 36.9979C88.397 36.9319 88.788 36.8999 89.208 36.8999C89.386 36.8999 89.573 36.9039 89.769 36.9179C89.965 36.9319 90.154 36.9449 90.336 36.9609C90.521 36.9789 90.687 36.9979 90.842 37.0199C90.997 37.0469 91.134 37.0709 91.249 37.0959L91.135 38.0739ZM105.87 37.0199V41.3499L109.541 37.0199H110.957L107.805 40.7289C108.096 40.8169 108.359 40.9379 108.584 41.0939C108.816 41.2499 109.018 41.4299 109.19 41.6369C109.363 41.8459 109.53 42.0819 109.675 42.3459C109.818 42.6119 109.962 42.9009 110.101 43.2089L110.968 45.1539H109.54L108.831 43.5129C108.616 43.0249 108.362 42.6049 108.058 42.2549C107.756 41.9029 107.378 41.6999 106.921 41.6419L105.869 42.8039V45.1539H104.589V37.0199H105.87ZM123.738 37.0199V37.9889H120.144V40.5069H123.382V41.4739H120.144V43.2339C120.144 43.5929 120.242 43.8409 120.439 43.9799C120.64 44.1189 120.912 44.1869 121.252 44.1869H123.895V45.1559H121.205C120.473 45.1559 119.897 45.0019 119.482 44.6969C119.064 44.3919 118.854 43.8999 118.854 43.2219V37.0199H123.738ZM133.615 37.0199L138.05 41.7779V37.0199H139.289V45.1549H138.05V43.3169L133.821 38.8439V45.1549H132.588V37.0199H133.615ZM150.246 42.3769L147.152 37.0199H148.68L151.065 41.1679C151.339 40.8979 151.597 40.5999 151.833 40.2699C152.068 39.9379 152.279 39.5959 152.461 39.2429C152.646 38.8879 152.799 38.5199 152.924 38.1389C153.041 37.7619 153.139 37.3889 153.201 37.0199H154.499C154.432 37.5099 154.312 38.0079 154.135 38.5139C153.953 39.0199 153.732 39.5059 153.465 39.9689C153.201 40.4339 152.904 40.8709 152.574 41.2829C152.24 41.6949 151.892 42.0529 151.525 42.3529V45.1539H150.246V42.3769ZM163.57 45.1539H162.312V39.8709C162.312 39.4319 162.363 39.0309 162.466 38.6679C162.566 38.3049 162.738 37.9879 162.981 37.7269C163.218 37.4609 163.537 37.2559 163.929 37.1139C164.329 36.9709 164.817 36.9009 165.408 36.9009C165.992 36.9009 166.487 36.9709 166.884 37.1139C167.287 37.2569 167.605 37.4619 167.844 37.7269C168.088 37.9889 168.258 38.3049 168.358 38.6679C168.462 39.0309 168.512 39.4319 168.512 39.8709V45.1539H167.227V42.1439H163.571V45.1539H163.57ZM167.227 41.1799V39.8319C167.227 39.5469 167.198 39.2849 167.143 39.0469C167.084 38.8069 166.985 38.5979 166.844 38.4219C166.701 38.2479 166.514 38.1109 166.281 38.0119C166.049 37.9159 165.758 37.8659 165.408 37.8659C165.047 37.8659 164.753 37.9169 164.521 38.0119C164.286 38.1119 164.1 38.2479 163.957 38.4219C163.814 38.5979 163.716 38.8069 163.656 39.0469C163.602 39.2849 163.57 39.5469 163.57 39.8319V41.1799H167.227ZM4.023 31.9859C4.205 31.8749 4.414 31.7029 4.649 31.4679C4.884 31.2329 5.078 30.9969 5.22 30.7609C5.366 30.5269 5.493 30.2979 5.601 30.0809V2.62687C5.347 1.50187 4.622 0.776874 3.425 0.452874C3.136 0.452874 2.847 0.452874 2.558 0.452874C2.265 0.452874 1.867 0.540874 1.362 0.722874C0.854 0.903874 0.402 1.53887 0 2.62687V30.0819L0.545 31.1129C0.727 31.2969 0.918 31.4879 1.115 31.6829C1.316 31.8849 1.559 31.9999 1.853 32.0389C2.141 32.0739 2.377 32.1479 2.559 32.2559L4.023 31.9859ZM40.125 30.7889C40.742 29.5189 40.631 28.3609 39.797 27.3089L17.943 15.5639L39.527 5.34587C40.179 4.61887 40.488 3.98687 40.449 3.44387C40.414 2.89887 40.349 2.48287 40.26 2.19387C40.172 1.90087 39.852 1.47487 39.311 0.914874C38.768 0.351874 37.749 0.271874 36.264 0.668874L9.681 13.1739C8.231 14.6969 8.245 16.1619 9.735 17.5779L36.807 32.1479C38.439 32.1819 39.547 31.7299 40.125 30.7889ZM47.248 31.9859C47.43 31.8749 47.638 31.7029 47.873 31.4679C48.107 31.2339 48.297 30.9969 48.443 30.7609C48.586 30.5269 48.713 30.2979 48.822 30.0809V20.0249H74.703C74.885 20.1319 75.119 20.2069 75.408 20.2419C75.698 20.2769 75.961 20.3489 76.195 20.4569C76.431 20.5659 76.658 20.7109 76.879 20.8929C77.781 21.5449 78.164 23.2679 78.018 26.0589L78.075 29.8109C78.292 31.0789 79.126 31.8949 80.576 32.2559C82.276 32.2209 83.292 31.4609 83.62 29.9729C83.62 28.7049 83.647 27.4279 83.7 26.1409C83.755 24.8539 83.708 23.6139 83.565 22.4179C83.419 21.2209 83.056 20.0429 82.477 18.8829C82.188 18.5939 81.94 18.2849 81.745 17.9569C81.544 17.6309 81.301 17.3239 81.007 17.0329C80.719 16.7439 80.429 16.4899 80.14 16.2709C80.357 15.7999 80.611 15.3299 80.9 14.8589C81.19 14.3879 81.398 13.8899 81.525 13.3629C81.652 12.8379 81.772 12.2849 81.88 11.7069C81.987 10.7269 81.987 9.75787 81.88 8.79687C81.772 7.83787 81.525 6.94887 81.148 6.13087C80.765 5.31787 80.283 4.52887 79.705 3.76787C79.16 3.11587 78.555 2.57087 77.884 2.13687C77.213 1.70287 76.487 1.36687 75.711 1.13087C74.928 0.896874 74.16 0.667874 73.4 0.452874H53.242C52.267 0.704874 51.56 1.42987 51.125 2.62687C51.125 2.91787 51.125 3.20687 51.125 3.49587C51.125 3.78687 51.171 4.07587 51.26 4.36487C51.35 4.65587 51.489 4.88987 51.67 5.07187L53.242 6.10487H72.527C72.815 6.17687 73.132 6.25887 73.48 6.35087C73.823 6.44087 74.111 6.55987 74.347 6.70287C74.581 6.84887 74.845 7.03087 75.138 7.24587C75.427 7.53687 75.644 7.81787 75.79 8.08987C75.933 8.36087 76.024 8.66987 76.06 9.01387C76.095 9.35987 76.167 9.73287 76.277 10.1289C76.168 10.4919 76.115 10.8439 76.115 11.1899C76.115 11.5339 76.025 11.8699 75.844 12.1959C75.664 12.5219 75.518 12.8309 75.408 13.1199C75.301 13.4089 74.482 13.7919 72.963 14.2629H45.939C44.527 14.2979 43.621 15.0769 43.224 16.6009V30.0829L43.767 31.1139C43.949 31.2979 44.138 31.4889 44.337 31.6839C44.534 31.8849 44.781 31.9999 45.071 32.0389C45.36 32.0739 45.594 32.1479 45.776 32.2559L47.248 31.9859ZM135.268 31.9859C135.45 31.8749 135.657 31.7029 135.893 31.4679C136.129 31.2329 136.317 30.9969 136.464 30.7609C136.608 30.5269 136.735 30.2979 136.842 30.0809V9.96687L150.219 23.1779C151.125 23.6839 152.028 23.6679 152.934 23.1229L166.096 9.85687L166.037 30.0819C166.437 31.1699 167.291 31.8949 168.596 32.2559C170.155 32.2209 171.169 31.4609 171.639 29.9729V2.19287C171.532 1.13787 170.805 0.415874 169.463 0.0148735C168.703 -0.0571264 167.904 0.123874 167.07 0.559874L151.467 16.3799L136.41 1.42987C135.465 0.634873 134.449 0.271874 133.361 0.341874C132.783 0.634874 132.357 0.876873 132.084 1.07787C131.814 1.27487 131.533 1.79287 131.242 2.62687V30.0819L131.788 31.1129C131.969 31.2969 132.158 31.4879 132.357 31.6829C132.555 31.8839 132.802 31.9989 133.091 32.0379C133.38 32.0729 133.615 32.1469 133.796 32.2549L135.268 31.9859Z" fill="url(#paint0_linear_965_261)"/>
<path id="Vector_2" d="M107.195 18.725V16.471C106.663 16.205 106.297 15.662 106.297 15.026C106.297 14.13 107.018 13.409 107.914 13.409C108.805 13.409 109.53 14.13 109.53 15.026C109.53 15.663 109.159 16.206 108.627 16.471V18.725C108.627 19.12 108.307 19.44 107.914 19.44C107.516 19.439 107.195 19.119 107.195 18.725ZM116.332 6.08596H100.37C100.05 5.62296 99.5408 5.29896 98.9348 5.29896C97.9508 5.29896 97.1558 6.09396 97.1558 7.07196C97.1558 8.05596 97.9508 8.85096 98.9348 8.85096C99.5398 8.85096 100.049 8.52697 100.37 8.05997H116.332C117.991 8.05997 119.338 9.40996 119.338 11.066V21.257C119.338 22.915 117.991 24.265 116.332 24.265H99.1928C97.5348 24.265 96.1828 22.915 96.1828 21.257V15.771C96.7008 15.46 97.0628 14.919 97.0628 14.273C97.0628 13.293 96.2688 12.498 95.2888 12.498C94.3058 12.498 93.5098 13.293 93.5098 14.273C93.5098 14.843 93.7928 15.326 94.2088 15.65V21.257C94.2088 24.003 96.4468 26.239 99.1928 26.239H116.332C119.079 26.239 121.312 24.003 121.312 21.257V11.066C121.313 8.31996 119.079 6.08596 116.332 6.08596ZM98.9358 7.94096C98.4568 7.94096 98.0678 7.54996 98.0678 7.07196C98.0678 6.59496 98.4578 6.20896 98.9358 6.20896C99.4108 6.20896 99.8008 6.59596 99.8008 7.07196C99.8008 7.55096 99.4098 7.94096 98.9358 7.94096ZM95.2888 15.141C94.8098 15.141 94.4208 14.75 94.4208 14.274C94.4208 13.795 94.8108 13.409 95.2888 13.409C95.7638 13.409 96.1538 13.796 96.1538 14.274C96.1538 14.75 95.7638 15.141 95.2888 15.141ZM114.193 9.90396C113.877 9.41197 113.353 9.06796 112.724 9.06796C111.742 9.06796 110.945 9.86296 110.945 10.843C110.945 11.825 111.742 12.62 112.724 12.62C113.295 12.62 113.781 12.331 114.105 11.911C114.892 12.095 115.491 12.77 115.491 13.614V18.708C115.491 19.692 114.691 20.493 113.709 20.493H101.816C100.834 20.493 100.03 19.692 100.03 18.708V13.614C100.03 12.63 100.834 11.829 101.816 11.829H102.237H103.994C104.314 12.296 104.822 12.62 105.432 12.62C106.412 12.62 107.208 11.825 107.208 10.843C107.208 9.86296 106.412 9.06796 105.432 9.06796C104.823 9.06796 104.315 9.39196 103.994 9.85496H102.237H101.816C99.7418 9.85496 98.0548 11.541 98.0548 13.615V18.709C98.0548 20.783 99.7418 22.469 101.816 22.469H113.709C115.779 22.469 117.466 20.783 117.466 18.709V13.615C117.466 11.709 116.034 10.148 114.193 9.90396ZM112.725 11.711C112.577 11.711 112.444 11.662 112.319 11.598C112.05 11.452 111.856 11.172 111.856 10.844C111.856 10.516 112.05 10.237 112.319 10.09C112.444 10.026 112.577 9.97896 112.725 9.97896C113.2 9.97896 113.59 10.366 113.59 10.844C113.59 11.32 113.199 11.711 112.725 11.711ZM105.432 9.97896C105.909 9.97896 106.297 10.366 106.297 10.844C106.297 11.321 105.908 11.711 105.432 11.711C104.956 11.711 104.565 11.32 104.565 10.844C104.564 10.365 104.955 9.97896 105.432 9.97896ZM111.859 28.266C111.251 28.266 110.742 28.59 110.421 29.055H95.9608C93.4678 29.055 91.4418 27.032 91.4418 24.541V7.78296C91.4418 5.29496 93.4668 3.26896 95.9608 3.26896H100.668C100.991 3.69696 101.482 3.99196 102.064 3.99196C103.043 3.99196 103.837 3.19696 103.837 2.21696C103.837 1.23496 103.042 0.439965 102.064 0.439965C101.423 0.439965 100.89 0.791965 100.58 1.29396H95.9608C92.3808 1.29396 89.4668 4.20796 89.4668 7.78396V24.542C89.4668 28.12 92.3808 31.032 95.9608 31.032H110.422C110.742 31.497 111.251 31.821 111.86 31.821C112.84 31.821 113.635 31.026 113.635 30.042C113.635 29.061 112.84 28.266 111.859 28.266ZM102.064 1.34996C102.539 1.34996 102.928 1.73896 102.928 2.21696C102.928 2.69396 102.538 3.08196 102.064 3.08196C101.585 3.08196 101.196 2.69296 101.196 2.21696C101.196 1.73796 101.586 1.34996 102.064 1.34996ZM111.859 30.908C111.382 30.908 110.992 30.519 110.992 30.041C110.992 29.564 111.383 29.178 111.859 29.178C112.335 29.178 112.724 29.565 112.724 30.041C112.725 30.52 112.336 30.908 111.859 30.908ZM126.013 25.021C126.024 24.859 126.055 24.705 126.055 24.541V7.78296C126.055 4.26196 123.231 1.40196 119.732 1.31196C119.419 0.797965 118.879 0.438965 118.239 0.438965C117.255 0.438965 116.46 1.23396 116.46 2.21596C116.46 3.19596 117.255 3.99096 118.239 3.99096C118.813 3.99096 119.3 3.69996 119.628 3.27596C122.089 3.30896 124.081 5.31496 124.081 7.78196V24.534C124.081 24.723 124.049 24.905 124.029 25.087C123.594 25.411 123.294 25.905 123.294 26.487C123.294 27.469 124.088 28.264 125.071 28.264C126.051 28.264 126.846 27.469 126.846 26.487C126.846 25.863 126.502 25.336 126.013 25.021ZM118.238 3.08196C117.759 3.08196 117.37 2.69296 117.37 2.21696C117.37 1.73796 117.76 1.34996 118.238 1.34996C118.713 1.34996 119.101 1.73896 119.101 2.21696C119.102 2.69296 118.713 3.08196 118.238 3.08196ZM125.07 27.355C124.591 27.355 124.202 26.966 124.202 26.488C124.202 26.011 124.592 25.623 125.07 25.623C125.546 25.623 125.934 26.012 125.934 26.488C125.935 26.967 125.546 27.355 125.07 27.355Z" fill="url(#paint1_linear_965_261)"/>
</g>
<path id="Vector_3" d="M3.94123 49.6758C3.86123 49.6578 3.76323 49.6408 3.65523 49.6228C3.54523 49.6048 3.42923 49.5878 3.31323 49.5738C3.19323 49.5598 3.07623 49.5488 2.95923 49.5388C2.84023 49.5308 2.73423 49.5248 2.64123 49.5248C2.47723 49.5248 2.32723 49.5328 2.18923 49.5478C2.05123 49.5618 1.93423 49.5928 1.83523 49.6398C1.73723 49.6848 1.65923 49.7508 1.60623 49.8368C1.55023 49.9208 1.52323 50.0298 1.52323 50.1648C1.52323 50.3208 1.59123 50.4738 1.72623 50.6198C1.85923 50.7658 2.02923 50.9128 2.23023 51.0588C2.43523 51.2038 2.65523 51.3578 2.89023 51.5178C3.12623 51.6778 3.34523 51.8518 3.54823 52.0388C3.75223 52.2248 3.91923 52.4318 4.05623 52.6558C4.18923 52.8808 4.25723 53.1308 4.25723 53.4058C4.25723 53.6678 4.21023 53.8918 4.12123 54.0738C4.03023 54.2598 3.90223 54.4078 3.73723 54.5208C3.57323 54.6358 3.37423 54.7178 3.14123 54.7668C2.90723 54.8158 2.64923 54.8408 2.37023 54.8408C2.02623 54.8408 1.70523 54.8078 1.41123 54.7408C1.11723 54.6738 0.867234 54.6038 0.659234 54.5338L0.764234 53.8518C0.973234 53.9158 1.21223 53.9808 1.48423 54.0468C1.75623 54.1148 2.04923 54.1488 2.36323 54.1488C2.65423 54.1488 2.89323 54.1018 3.08323 54.0078C3.27223 53.9158 3.36823 53.7378 3.36823 53.4828C3.36823 53.3028 3.30023 53.1288 3.16623 52.9648C3.03023 52.8028 2.86023 52.6428 2.65423 52.4848C2.44823 52.3268 2.22723 52.1698 1.99023 52.0058C1.75623 51.8418 1.53423 51.6698 1.32823 51.4878C1.12323 51.3078 0.953234 51.1148 0.816234 50.9098C0.683234 50.7068 0.615234 50.4778 0.615234 50.2258C0.615234 49.9638 0.669234 49.7438 0.775234 49.5658C0.882234 49.3858 1.02723 49.2438 1.20723 49.1358C1.39123 49.0288 1.60423 48.9498 1.85223 48.9038C2.09823 48.8568 2.36323 48.8338 2.64123 48.8338C2.76223 48.8338 2.88923 48.8378 3.02223 48.8458C3.15323 48.8558 3.28023 48.8658 3.40323 48.8768C3.52623 48.8878 3.64123 48.9038 3.74523 48.9218C3.84923 48.9398 3.94023 48.9568 4.01623 48.9748L3.94123 49.6758ZM6.03323 52.8908C6.03923 53.1018 6.06223 53.2868 6.10723 53.4478C6.15223 53.6088 6.22423 53.7408 6.32223 53.8458C6.42123 53.9508 6.55223 54.0298 6.71723 54.0818C6.88223 54.1348 7.09023 54.1618 7.34223 54.1618C7.43023 54.1618 7.52823 54.1558 7.63123 54.1478C7.73523 54.1378 7.84023 54.1268 7.94023 54.1068C8.04223 54.0908 8.13723 54.0718 8.22723 54.0558C8.31923 54.0358 8.39323 54.0208 8.45623 54.0028L8.53023 54.6488C8.37123 54.6958 8.17623 54.7388 7.94823 54.7778C7.72123 54.8148 7.48923 54.8348 7.25323 54.8348C6.94023 54.8348 6.65523 54.8018 6.39723 54.7388C6.14023 54.6748 5.91923 54.5588 5.74223 54.3928C5.56023 54.2248 5.42223 53.9998 5.32223 53.7168C5.22123 53.4338 5.17123 53.0718 5.17123 52.6348C5.17123 52.2248 5.21323 51.8808 5.29823 51.5998C5.38323 51.3208 5.50623 51.0938 5.66523 50.9218C5.82423 50.7498 6.01823 50.6248 6.24423 50.5488C6.47423 50.4728 6.72623 50.4358 7.00823 50.4358C7.28723 50.4358 7.52923 50.4768 7.73123 50.5628C7.93423 50.6468 8.10423 50.7658 8.23923 50.9168C8.37323 51.0708 8.47123 51.2548 8.53623 51.4718C8.59924 51.6868 8.63023 51.9288 8.63023 52.1988V52.8898H6.03323V52.8908ZM7.82823 52.2768C7.82823 51.4638 7.54323 51.0598 6.97623 51.0598C6.66023 51.0598 6.43323 51.1618 6.28823 51.3648C6.14623 51.5698 6.06323 51.8728 6.04023 52.2768H7.82823ZM12.2522 51.2168C12.1212 51.1878 11.9772 51.1618 11.8232 51.1428C11.6692 51.1238 11.5132 51.1118 11.3532 51.1118C11.1892 51.1118 11.0402 51.1348 10.9082 51.1778C10.7772 51.2208 10.6662 51.3008 10.5752 51.4138C10.4862 51.5268 10.4162 51.6838 10.3692 51.8788C10.3222 52.0738 10.2992 52.3258 10.2992 52.6368C10.2992 52.9178 10.3192 53.1548 10.3582 53.3498C10.3982 53.5468 10.4602 53.7038 10.5442 53.8248C10.6302 53.9438 10.7402 54.0298 10.8782 54.0828C11.0152 54.1358 11.1792 54.1628 11.3722 54.1628C11.5422 54.1628 11.7022 54.1488 11.8542 54.1218C12.0042 54.0968 12.1552 54.0608 12.3092 54.0218L12.3852 54.6778C12.2252 54.7248 12.0552 54.7638 11.8732 54.7908C11.6912 54.8198 11.5082 54.8358 11.3202 54.8358C11.0402 54.8358 10.7852 54.7988 10.5562 54.7208C10.3242 54.6468 10.1242 54.5218 9.95623 54.3498C9.78823 54.1778 9.66123 53.9518 9.57023 53.6698C9.47923 53.3878 9.43423 53.0428 9.43423 52.6268C9.43423 52.2068 9.48123 51.8558 9.57523 51.5718C9.66723 51.2888 9.80023 51.0638 9.97023 50.8958C10.1402 50.7298 10.3432 50.6128 10.5792 50.5418C10.8142 50.4718 11.0752 50.4368 11.3622 50.4368C11.5322 50.4368 11.7042 50.4488 11.8802 50.4718C12.0582 50.4948 12.2062 50.5208 12.3342 50.5498L12.2522 51.2168ZM16.6992 54.5198C16.4782 54.6018 16.2182 54.6758 15.9122 54.7408C15.6092 54.8038 15.2992 54.8368 14.9862 54.8368C14.7552 54.8368 14.5372 54.8118 14.3262 54.7628C14.1192 54.7118 13.9352 54.6298 13.7792 54.5128C13.6242 54.3958 13.5002 54.2398 13.4082 54.0438C13.3182 53.8488 13.2732 53.6048 13.2732 53.3118V50.5268H14.1052V53.3218C14.1052 53.4778 14.1282 53.6108 14.1752 53.7198C14.2222 53.8268 14.2852 53.9148 14.3682 53.9838C14.4502 54.0498 14.5442 54.0968 14.6522 54.1228C14.7582 54.1498 14.8762 54.1638 15.0032 54.1638C15.1552 54.1638 15.3122 54.1498 15.4722 54.1228C15.6312 54.0978 15.7632 54.0698 15.8672 54.0388V50.5268H16.6992V54.5198ZM18.0902 50.7618C18.4302 50.6508 18.7722 50.5708 19.1152 50.5218C19.4572 50.4708 19.8352 50.4478 20.2462 50.4478V51.1468C20.1872 51.1408 20.1232 51.1388 20.0582 51.1388C19.9922 51.1388 19.9252 51.1388 19.8592 51.1388C19.6842 51.1388 19.5152 51.1508 19.3492 51.1738C19.1852 51.1968 19.0422 51.2248 18.9212 51.2598V54.7478H18.0902V50.7618ZM21.5162 52.8908C21.5232 53.1018 21.5462 53.2868 21.5902 53.4478C21.6352 53.6078 21.7072 53.7408 21.8052 53.8458C21.9052 53.9508 22.0352 54.0298 22.2002 54.0818C22.3662 54.1348 22.5732 54.1618 22.8272 54.1618C22.9132 54.1618 23.0112 54.1558 23.1162 54.1478C23.2202 54.1378 23.3232 54.1268 23.4232 54.1068C23.5252 54.0908 23.6202 54.0718 23.7122 54.0558C23.8042 54.0358 23.8772 54.0208 23.9392 54.0028L24.0132 54.6488C23.8552 54.6958 23.6612 54.7388 23.4332 54.7778C23.2042 54.8148 22.9742 54.8348 22.7362 54.8348C22.4232 54.8348 22.1402 54.8018 21.8812 54.7388C21.6232 54.6748 21.4032 54.5588 21.2252 54.3928C21.0432 54.2248 20.9052 53.9998 20.8052 53.7168C20.7052 53.4338 20.6552 53.0718 20.6552 52.6348C20.6552 52.2248 20.6962 51.8808 20.7822 51.5998C20.8672 51.3208 20.9912 51.0938 21.1492 50.9218C21.3082 50.7498 21.5032 50.6248 21.7292 50.5488C21.9582 50.4728 22.2102 50.4358 22.4912 50.4358C22.7702 50.4358 23.0122 50.4768 23.2152 50.5628C23.4192 50.6468 23.5892 50.7658 23.7222 50.9168C23.8572 51.0708 23.9562 51.2548 24.0212 51.4718C24.0822 51.6868 24.1132 51.9288 24.1132 52.1988V52.8898H21.5162V52.8908ZM23.3132 52.2768C23.3132 51.4638 23.0282 51.0598 22.4612 51.0598C22.1452 51.0598 21.9172 51.1618 21.7732 51.3648C21.6302 51.5698 21.5472 51.8728 21.5252 52.2768H23.3132ZM28.2682 54.7478H27.4222V50.9628C27.4222 50.6488 27.4552 50.3608 27.5242 50.0998C27.5942 49.8398 27.7092 49.6158 27.8702 49.4258C28.0312 49.2348 28.2462 49.0898 28.5132 48.9868C28.7792 48.8848 29.1112 48.8348 29.5052 48.8348C29.8992 48.8348 30.2342 48.8858 30.5032 48.9868C30.7712 49.0908 30.9862 49.2348 31.1482 49.4258C31.3102 49.6148 31.4262 49.8398 31.4942 50.0998C31.5622 50.3618 31.5982 50.6488 31.5982 50.9628V54.7478H30.7302V52.5918H28.2672V54.7478H28.2682ZM30.7302 51.8998V50.9348C30.7302 50.7318 30.7102 50.5438 30.6732 50.3708C30.6342 50.1988 30.5672 50.0508 30.4712 49.9258C30.3762 49.7988 30.2472 49.7008 30.0932 49.6308C29.9362 49.5608 29.7392 49.5258 29.5032 49.5258C29.2612 49.5258 29.0642 49.5608 28.9062 49.6308C28.7482 49.7008 28.6242 49.7988 28.5282 49.9258C28.4302 50.0508 28.3652 50.1988 28.3252 50.3708C28.2862 50.5448 28.2662 50.7318 28.2662 50.9348V51.8998H30.7302ZM32.9872 50.7618C33.2442 50.6738 33.5282 50.5978 33.8382 50.5328C34.1492 50.4688 34.4452 50.4368 34.7252 50.4368C34.9892 50.4368 35.2342 50.4738 35.4592 50.5458C35.6842 50.6198 35.8772 50.7408 36.0462 50.9088C36.2142 51.0788 36.3442 51.3018 36.4382 51.5748C36.5302 51.8478 36.5772 52.1878 36.5772 52.5908C36.5772 53.0358 36.5302 53.4038 36.4342 53.6908C36.3372 53.9818 36.2072 54.2108 36.0412 54.3788C35.8772 54.5488 35.6872 54.6678 35.4712 54.7358C35.2522 54.8018 35.0222 54.8358 34.7752 54.8358C34.6162 54.8358 34.4532 54.8238 34.2842 54.8008C34.1172 54.7778 33.9622 54.7518 33.8202 54.7208V56.3948H32.9882V50.7618H32.9872ZM33.8192 54.0468C33.9712 54.0758 34.1232 54.1038 34.2712 54.1268C34.4192 54.1478 34.5682 54.1618 34.7162 54.1618C34.8622 54.1618 34.9992 54.1388 35.1242 54.0958C35.2472 54.0508 35.3532 53.9708 35.4402 53.8558C35.5262 53.7388 35.5942 53.5788 35.6412 53.3768C35.6882 53.1748 35.7112 52.9178 35.7112 52.6018C35.7112 52.2968 35.6882 52.0488 35.6412 51.8578C35.5942 51.6648 35.5262 51.5118 35.4402 51.4028C35.3522 51.2898 35.2472 51.2138 35.1242 51.1738C34.9992 51.1328 34.8602 51.1108 34.7082 51.1108C34.6422 51.1108 34.5672 51.1148 34.4892 51.1248C34.4092 51.1348 34.3272 51.1448 34.2452 51.1558C34.1652 51.1658 34.0862 51.1808 34.0112 51.1948C33.9382 51.2088 33.8742 51.2238 33.8192 51.2438V54.0468ZM37.6802 50.7618C37.9382 50.6738 38.2232 50.5978 38.5322 50.5328C38.8432 50.4688 39.1392 50.4368 39.4172 50.4368C39.6832 50.4368 39.9272 50.4738 40.1522 50.5458C40.3782 50.6198 40.5732 50.7408 40.7402 50.9088C40.9072 51.0788 41.0372 51.3018 41.1312 51.5748C41.2262 51.8478 41.2712 52.1878 41.2712 52.5908C41.2712 53.0358 41.2262 53.4038 41.1262 53.6908C41.0312 53.9818 40.9012 54.2108 40.7352 54.3788C40.5732 54.5488 40.3812 54.6678 40.1652 54.7358C39.9462 54.8018 39.7162 54.8358 39.4692 54.8358C39.3102 54.8358 39.1462 54.8238 38.9782 54.8008C38.8122 54.7778 38.6572 54.7518 38.5152 54.7208V56.3948H37.6802V50.7618ZM38.5142 54.0468C38.6662 54.0758 38.8172 54.1038 38.9652 54.1268C39.1132 54.1478 39.2622 54.1618 39.4102 54.1618C39.5562 54.1618 39.6932 54.1388 39.8182 54.0958C39.9412 54.0508 40.0472 53.9708 40.1342 53.8558C40.2212 53.7388 40.2882 53.5788 40.3352 53.3768C40.3822 53.1748 40.4052 52.9178 40.4052 52.6018C40.4052 52.2968 40.3822 52.0488 40.3352 51.8578C40.2882 51.6648 40.2212 51.5118 40.1342 51.4028C40.0462 51.2898 39.9412 51.2138 39.8182 51.1738C39.6932 51.1328 39.5542 51.1108 39.4022 51.1108C39.3362 51.1108 39.2612 51.1148 39.1832 51.1248C39.1022 51.1348 39.0222 51.1448 38.9392 51.1558C38.8582 51.1658 38.7802 51.1808 38.7052 51.1948C38.6312 51.2088 38.5672 51.2238 38.5142 51.2438V54.0468ZM43.2212 48.3518V54.7478H42.3912V48.3518H43.2212ZM45.5782 48.9468C45.5782 49.1048 45.5332 49.2278 45.4412 49.3158C45.3492 49.4018 45.2202 49.4468 45.0502 49.4468C44.8842 49.4468 44.7552 49.4018 44.6612 49.3158C44.5672 49.2278 44.5202 49.1048 44.5202 48.9468C44.5202 48.7848 44.5672 48.6578 44.6612 48.5698C44.7552 48.4838 44.8842 48.4388 45.0502 48.4388C45.4002 48.4388 45.5782 48.6088 45.5782 48.9468ZM45.4692 50.5248V54.7478H44.6392V50.5248H45.4692ZM49.4082 51.2168C49.2772 51.1878 49.1332 51.1618 48.9802 51.1428C48.8262 51.1228 48.6692 51.1118 48.5092 51.1118C48.3452 51.1118 48.1962 51.1348 48.0642 51.1778C47.9332 51.2208 47.8232 51.3008 47.7322 51.4138C47.6422 51.5268 47.5722 51.6838 47.5252 51.8788C47.4782 52.0738 47.4562 52.3258 47.4562 52.6368C47.4562 52.9178 47.4752 53.1548 47.5132 53.3498C47.5532 53.5468 47.6162 53.7038 47.7002 53.8248C47.7852 53.9438 47.8952 54.0298 48.0342 54.0828C48.1702 54.1358 48.3352 54.1628 48.5282 54.1628C48.6982 54.1628 48.8562 54.1488 49.0102 54.1218C49.1602 54.0968 49.3112 54.0608 49.4672 54.0218L49.5402 54.6778C49.3812 54.7248 49.2112 54.7638 49.0282 54.7908C48.8472 54.8198 48.6642 54.8358 48.4762 54.8358C48.1972 54.8358 47.9412 54.7988 47.7122 54.7208C47.4812 54.6468 47.2802 54.5218 47.1132 54.3498C46.9452 54.1778 46.8172 53.9518 46.7252 53.6698C46.6352 53.3888 46.5902 53.0428 46.5902 52.6268C46.5902 52.2068 46.6372 51.8558 46.7312 51.5718C46.8232 51.2888 46.9562 51.0638 47.1262 50.8958C47.2962 50.7298 47.4992 50.6128 47.7352 50.5418C47.9692 50.4718 48.2312 50.4368 48.5182 50.4368C48.6882 50.4368 48.8602 50.4488 49.0362 50.4718C49.2122 50.4948 49.3632 50.5208 49.4912 50.5498L49.4082 51.2168ZM50.5762 50.5858C50.7522 50.5448 50.9452 50.5098 51.1582 50.4808C51.3672 50.4518 51.5762 50.4378 51.7802 50.4378C52.0092 50.4378 52.2292 50.4588 52.4412 50.5018C52.6522 50.5468 52.8372 50.6228 52.9942 50.7308C53.1512 50.8398 53.2732 50.9808 53.3672 51.1568C53.4612 51.3308 53.5082 51.5518 53.5082 51.8128V54.5378C53.2992 54.6018 53.0492 54.6688 52.7542 54.7368C52.4612 54.8028 52.1472 54.8368 51.8122 54.8368C51.5832 54.8368 51.3682 54.8138 51.1702 54.7668C50.9712 54.7198 50.8012 54.6438 50.6542 54.5348C50.5092 54.4278 50.3962 54.2848 50.3122 54.1088C50.2302 53.9348 50.1892 53.7158 50.1892 53.4528C50.1892 53.2068 50.2342 53.0038 50.3262 52.8398C50.4172 52.6758 50.5362 52.5448 50.6832 52.4448C50.8322 52.3448 51.0042 52.2748 51.2032 52.2358C51.4002 52.1928 51.6052 52.1728 51.8202 52.1728C51.9962 52.1728 52.1532 52.1808 52.2932 52.1958C52.4342 52.2098 52.5612 52.2268 52.6782 52.2508V51.8388C52.6782 51.5478 52.5862 51.3508 52.4082 51.2488C52.2292 51.1468 52.0062 51.0968 51.7372 51.0968C51.5502 51.0968 51.3592 51.1128 51.1622 51.1478C50.9652 51.1828 50.7882 51.2178 50.6332 51.2528L50.5762 50.5858ZM52.6782 52.8908C52.5612 52.8678 52.4362 52.8478 52.2982 52.8338C52.1592 52.8198 52.0202 52.8128 51.8772 52.8128C51.7562 52.8128 51.6452 52.8208 51.5352 52.8378C51.4302 52.8558 51.3362 52.8888 51.2562 52.9398C51.1782 52.9888 51.1132 53.0588 51.0672 53.1488C51.0202 53.2408 50.9972 53.3578 50.9972 53.5038C50.9972 53.7738 51.0772 53.9588 51.2412 54.0608C51.4022 54.1628 51.5982 54.2128 51.8292 54.2128C51.9952 54.2128 52.1492 54.2008 52.2942 54.1778C52.4402 54.1548 52.5672 54.1288 52.6792 54.0998V52.8908H52.6782ZM55.7962 49.3068V50.5258H56.9492V51.1818H55.7962V53.7028C55.7962 53.8748 55.8412 53.9918 55.9282 54.0598C56.0182 54.1258 56.1312 54.1618 56.2742 54.1618C56.4022 54.1618 56.5342 54.1478 56.6692 54.1208C56.8082 54.0958 56.9222 54.0678 57.0172 54.0368L57.0412 54.6968C56.9132 54.7438 56.7782 54.7768 56.6282 54.8008C56.4812 54.8238 56.3292 54.8358 56.1772 54.8358C55.8182 54.8358 55.5272 54.7438 55.3022 54.5648C55.0772 54.3828 54.9652 54.0848 54.9652 53.6698V51.1818H54.3162V50.5258H54.9652L55.1552 49.3068H55.7962ZM58.8932 48.9468C58.8932 49.1048 58.8482 49.2278 58.7572 49.3158C58.6662 49.4018 58.5362 49.4468 58.3662 49.4468C58.2012 49.4468 58.0722 49.4018 57.9782 49.3158C57.8842 49.2278 57.8372 49.1048 57.8372 48.9468C57.8372 48.7848 57.8842 48.6578 57.9782 48.5698C58.0722 48.4838 58.2012 48.4388 58.3662 48.4388C58.7172 48.4388 58.8932 48.6088 58.8932 48.9468ZM58.7852 50.5248V54.7478H57.9552V50.5248H58.7852ZM63.6692 52.6368C63.6692 53.4138 63.5062 53.9748 63.1802 54.3188C62.8522 54.6648 62.3872 54.8368 61.7832 54.8368C61.1802 54.8368 60.7152 54.6648 60.3932 54.3188C60.0672 53.9748 59.9052 53.4148 59.9052 52.6368C59.9052 51.8588 60.0672 51.2988 60.3932 50.9548C60.7142 50.6088 61.1802 50.4368 61.7832 50.4368C62.3872 50.4368 62.8522 50.6088 63.1802 50.9548C63.5062 51.2988 63.6692 51.8588 63.6692 52.6368ZM62.8052 52.6368C62.8052 52.3378 62.7822 52.0918 62.7372 51.8968C62.6962 51.7018 62.6302 51.5428 62.5412 51.4278C62.4542 51.3108 62.3482 51.2288 62.2262 51.1818C62.1012 51.1348 61.9572 51.1118 61.7922 51.1118C61.6282 51.1118 61.4812 51.1348 61.3562 51.1818C61.2292 51.2288 61.1222 51.3108 61.0342 51.4278C60.9462 51.5428 60.8812 51.7008 60.8372 51.8968C60.7942 52.0918 60.7712 52.3378 60.7712 52.6368C60.7712 52.9338 60.7942 53.1818 60.8372 53.3768C60.8812 53.5738 60.9462 53.7288 61.0342 53.8458C61.1222 53.9628 61.2292 54.0448 61.3562 54.0918C61.4812 54.1388 61.6272 54.1618 61.7922 54.1618C61.9572 54.1618 62.1012 54.1388 62.2262 54.0918C62.3482 54.0448 62.4552 53.9628 62.5412 53.8458C62.6302 53.7288 62.6962 53.5748 62.7372 53.3768C62.7812 53.1818 62.8052 52.9338 62.8052 52.6368ZM65.1412 50.6518C65.2742 50.6128 65.4182 50.5778 65.5712 50.5468C65.7272 50.5138 65.8852 50.4878 66.0532 50.4668C66.2212 50.4468 66.3872 50.4378 66.5522 50.4378C66.7982 50.4378 67.0282 50.4628 67.2402 50.5118C67.4502 50.5608 67.6352 50.6428 67.7912 50.7578C67.9462 50.8708 68.0692 51.0258 68.1562 51.2168C68.2462 51.4098 68.2882 51.6468 68.2882 51.9278V54.7478H67.4592V51.9608C67.4592 51.7988 67.4362 51.6598 67.3892 51.5508C67.3422 51.4398 67.2762 51.3518 67.1942 51.2868C67.1122 51.2218 67.0122 51.1778 66.8992 51.1498C66.7822 51.1248 66.6592 51.1108 66.5262 51.1108C66.3742 51.1108 66.2152 51.1248 66.0492 51.1498C65.8852 51.1768 65.7392 51.2088 65.6132 51.2438V54.7478H64.7812V50.7618C64.8862 50.7268 65.0042 50.6888 65.1412 50.6518ZM72.1092 51.1908C71.9762 51.1618 71.8242 51.1358 71.6482 51.1148C71.4722 51.0948 71.2852 51.0858 71.0872 51.0858C70.7962 51.0858 70.5672 51.1188 70.3992 51.1818C70.2312 51.2458 70.1492 51.3708 70.1492 51.5588C70.1492 51.6698 70.2042 51.7698 70.3112 51.8578C70.4222 51.9438 70.5572 52.0318 70.7212 52.1158C70.8822 52.1998 71.0592 52.2878 71.2522 52.3798C71.4432 52.4698 71.6212 52.5768 71.7832 52.6978C71.9432 52.8208 72.0802 52.9618 72.1892 53.1238C72.3002 53.2838 72.3552 53.4778 72.3552 53.7058C72.3552 53.9108 72.3122 54.0848 72.2302 54.2268C72.1492 54.3718 72.0372 54.4868 71.8922 54.5788C71.7492 54.6688 71.5822 54.7328 71.3882 54.7758C71.1912 54.8148 70.9802 54.8368 70.7482 54.8368C70.4842 54.8368 70.2292 54.8158 69.9852 54.7758C69.7412 54.7328 69.5362 54.6818 69.3642 54.6178L69.4542 53.9518C69.5312 53.9788 69.6202 54.0068 69.7222 54.0298C69.8242 54.0528 69.9332 54.0768 70.0472 54.0958C70.1632 54.1158 70.2782 54.1308 70.3942 54.1428C70.5102 54.1548 70.6232 54.1628 70.7312 54.1628C70.9842 54.1628 71.1752 54.1318 71.3002 54.0688C71.4252 54.0078 71.4882 53.8868 71.4882 53.7058C71.4882 53.5708 71.4352 53.4558 71.3292 53.3598C71.2222 53.2638 71.0872 53.1708 70.9262 53.0848C70.7632 52.9968 70.5892 52.9088 70.4022 52.8208C70.2162 52.7328 70.0412 52.6328 69.8812 52.5238C69.7192 52.4128 69.5832 52.2818 69.4772 52.1288C69.3702 51.9768 69.3162 51.7948 69.3162 51.5858C69.3162 51.3568 69.3632 51.1698 69.4562 51.0198C69.5512 50.8718 69.6782 50.7538 69.8392 50.6698C70.0032 50.5838 70.1912 50.5248 70.4072 50.4898C70.6232 50.4548 70.8532 50.4368 71.0952 50.4368C71.3002 50.4368 71.4992 50.4468 71.6972 50.4658C71.8942 50.4868 72.0582 50.5088 72.1832 50.5318L72.1092 51.1908ZM76.4672 47.7378V56.4998H75.7832V47.7378H76.4672ZM83.6212 48.9218V49.6128H81.2002V51.4178H83.3832V52.1108H81.2002V53.3728C81.2002 53.6288 81.2682 53.8088 81.4022 53.9078C81.5362 54.0058 81.7182 54.0558 81.9502 54.0558H83.7282V54.7468H81.9152C81.4232 54.7468 81.0342 54.6378 80.7552 54.4188C80.4742 54.1998 80.3362 53.8488 80.3362 53.3618V48.9208H83.6212V48.9218ZM85.6882 50.5468C85.9922 50.4748 86.3012 50.4378 86.6192 50.4378C86.8622 50.4378 87.0822 50.4668 87.2852 50.5258C87.4902 50.5848 87.6642 50.6758 87.8122 50.8048C88.0172 50.6998 88.2482 50.6138 88.5042 50.5428C88.7632 50.4728 89.0172 50.4378 89.2612 50.4378C89.4802 50.4378 89.6872 50.4628 89.8742 50.5118C90.0642 50.5608 90.2282 50.6448 90.3652 50.7618C90.5022 50.8788 90.6122 51.0328 90.6902 51.2208C90.7702 51.4118 90.8092 51.6468 90.8092 51.9278V54.7478H89.9792V51.9608C89.9792 51.7928 89.9562 51.6538 89.9132 51.5448C89.8682 51.4378 89.8082 51.3518 89.7352 51.2868C89.6612 51.2228 89.5712 51.1778 89.4672 51.1498C89.3622 51.1248 89.2532 51.1108 89.1392 51.1108C88.9452 51.1108 88.7722 51.1378 88.6162 51.1908C88.4582 51.2438 88.3172 51.2978 88.1902 51.3568C88.2472 51.5148 88.2742 51.7048 88.2742 51.9268V54.7468H87.4422V51.9598C87.4422 51.7918 87.4192 51.6528 87.3762 51.5438C87.3332 51.4368 87.2722 51.3508 87.1982 51.2858C87.1242 51.2208 87.0362 51.1768 86.9342 51.1488C86.8322 51.1238 86.7232 51.1098 86.6022 51.1098C86.4592 51.1098 86.3112 51.1238 86.1592 51.1488C86.0042 51.1758 85.8652 51.2078 85.7472 51.2428V54.7468H84.9152V50.7608C85.1312 50.6908 85.3872 50.6208 85.6882 50.5468ZM92.1292 50.7618C92.3852 50.6738 92.6692 50.5978 92.9792 50.5328C93.2902 50.4688 93.5862 50.4368 93.8662 50.4368C94.1302 50.4368 94.3762 50.4738 94.6002 50.5458C94.8252 50.6198 95.0202 50.7408 95.1882 50.9088C95.3562 51.0788 95.4852 51.3018 95.5792 51.5748C95.6712 51.8478 95.7202 52.1878 95.7202 52.5908C95.7202 53.0358 95.6712 53.4038 95.5742 53.6908C95.4782 53.9818 95.3512 54.2108 95.1852 54.3788C95.0212 54.5488 94.8302 54.6678 94.6132 54.7358C94.3942 54.8018 94.1642 54.8358 93.9182 54.8358C93.7592 54.8358 93.5942 54.8238 93.4272 54.8008C93.2592 54.7778 93.1062 54.7518 92.9632 54.7208V56.3948H92.1312V50.7618H92.1292ZM92.9612 54.0468C93.1132 54.0758 93.2662 54.1038 93.4122 54.1268C93.5602 54.1478 93.7112 54.1618 93.8582 54.1618C94.0052 54.1618 94.1402 54.1388 94.2652 54.0958C94.3902 54.0508 94.4942 53.9708 94.5812 53.8558C94.6692 53.7388 94.7352 53.5788 94.7822 53.3768C94.8302 53.1758 94.8522 52.9178 94.8522 52.6018C94.8522 52.2968 94.8302 52.0488 94.7822 51.8578C94.7352 51.6648 94.6692 51.5118 94.5812 51.4028C94.4932 51.2898 94.3902 51.2138 94.2652 51.1738C94.1402 51.1328 94.0012 51.1108 93.8492 51.1108C93.7832 51.1108 93.7102 51.1148 93.6302 51.1248C93.5502 51.1348 93.4692 51.1448 93.3862 51.1558C93.3062 51.1658 93.2262 51.1808 93.1542 51.1948C93.0792 51.2088 93.0152 51.2238 92.9612 51.2438V54.0468ZM100.307 52.6368C100.307 53.4138 100.145 53.9748 99.8172 54.3188C99.4912 54.6648 99.0262 54.8368 98.4212 54.8368C97.8182 54.8368 97.3532 54.6648 97.0302 54.3188C96.7062 53.9748 96.5462 53.4148 96.5462 52.6368C96.5462 51.8588 96.7062 51.2988 97.0302 50.9548C97.3522 50.6088 97.8182 50.4368 98.4212 50.4368C99.0262 50.4368 99.4912 50.6088 99.8172 50.9548C100.145 51.2988 100.307 51.8588 100.307 52.6368ZM99.4422 52.6368C99.4422 52.3378 99.4202 52.0918 99.3752 51.8968C99.3332 51.7018 99.2682 51.5428 99.1782 51.4278C99.0902 51.3108 98.9852 51.2288 98.8622 51.1818C98.7392 51.1348 98.5942 51.1118 98.4282 51.1118C98.2662 51.1118 98.1182 51.1348 97.9922 51.1818C97.8652 51.2288 97.7602 51.3108 97.6712 51.4278C97.5842 51.5428 97.5192 51.7008 97.4752 51.8968C97.4322 52.0918 97.4092 52.3378 97.4092 52.6368C97.4092 52.9338 97.4322 53.1818 97.4752 53.3768C97.5192 53.5738 97.5842 53.7288 97.6712 53.8458C97.7602 53.9628 97.8652 54.0448 97.9922 54.0918C98.1182 54.1388 98.2652 54.1618 98.4282 54.1618C98.5942 54.1618 98.7392 54.1388 98.8622 54.0918C98.9852 54.0448 99.0912 53.9628 99.1782 53.8458C99.2682 53.7288 99.3332 53.5748 99.3752 53.3768C99.4202 53.1818 99.4422 52.9338 99.4422 52.6368ZM100.831 50.5248H101.688L102.701 53.9938L103.771 50.5248H104.652L105.83 54.0368C106.035 53.5938 106.217 53.0798 106.382 52.4958C106.548 51.9118 106.666 51.2558 106.746 50.5248H107.495C107.404 51.3138 107.262 52.0478 107.057 52.7318C106.854 53.4158 106.586 54.0868 106.25 54.7478H105.312L104.208 51.4368L103.161 54.7478H102.132L100.831 50.5248ZM108.885 52.8908C108.891 53.1018 108.915 53.2868 108.959 53.4478C109.004 53.6078 109.076 53.7408 109.174 53.8458C109.275 53.9508 109.406 54.0298 109.569 54.0818C109.734 54.1348 109.942 54.1618 110.194 54.1618C110.282 54.1618 110.381 54.1558 110.484 54.1478C110.588 54.1378 110.692 54.1268 110.792 54.1068C110.894 54.0908 110.989 54.0718 111.081 54.0558C111.173 54.0358 111.247 54.0208 111.31 54.0028L111.382 54.6488C111.224 54.6958 111.03 54.7388 110.802 54.7778C110.573 54.8148 110.342 54.8348 110.105 54.8348C109.793 54.8348 109.509 54.8018 109.25 54.7388C108.993 54.6748 108.771 54.5588 108.594 54.3928C108.414 54.2248 108.274 53.9998 108.174 53.7168C108.074 53.4338 108.024 53.0718 108.024 52.6348C108.024 52.2248 108.067 51.8808 108.151 51.5998C108.235 51.3208 108.36 51.0938 108.518 50.9218C108.676 50.7498 108.872 50.6248 109.096 50.5488C109.326 50.4728 109.578 50.4358 109.86 50.4358C110.14 50.4358 110.382 50.4768 110.583 50.5628C110.788 50.6468 110.958 50.7658 111.093 50.9168C111.226 51.0708 111.325 51.2548 111.388 51.4718C111.451 51.6868 111.483 51.9288 111.483 52.1988V52.8898H108.885V52.8908ZM110.681 52.2768C110.681 51.4638 110.397 51.0598 109.829 51.0598C109.514 51.0598 109.286 51.1618 109.142 51.3648C108.999 51.5698 108.915 51.8728 108.894 52.2768H110.681ZM112.567 50.7618C112.907 50.6508 113.25 50.5708 113.593 50.5218C113.935 50.4708 114.313 50.4478 114.724 50.4478V51.1468C114.664 51.1408 114.601 51.1388 114.536 51.1388C114.47 51.1388 114.403 51.1388 114.337 51.1388C114.161 51.1388 113.991 51.1508 113.825 51.1738C113.661 51.1968 113.519 51.2248 113.399 51.2598V54.7478H112.566V50.7618H112.567ZM116.529 48.9468C116.529 49.1048 116.484 49.2278 116.392 49.3158C116.301 49.4018 116.171 49.4468 116.002 49.4468C115.836 49.4468 115.707 49.4018 115.612 49.3158C115.52 49.2278 115.473 49.1048 115.473 48.9468C115.473 48.7848 115.52 48.6578 115.612 48.5698C115.707 48.4838 115.836 48.4388 116.002 48.4388C116.354 48.4388 116.529 48.6088 116.529 48.9468ZM116.42 50.5248V54.7478H115.592V50.5248H116.42ZM118.189 50.6518C118.323 50.6128 118.466 50.5778 118.619 50.5468C118.775 50.5138 118.933 50.4878 119.101 50.4668C119.269 50.4468 119.435 50.4378 119.601 50.4378C119.846 50.4378 120.076 50.4628 120.288 50.5118C120.499 50.5608 120.684 50.6428 120.84 50.7578C120.996 50.8708 121.118 51.0258 121.205 51.2168C121.295 51.4098 121.337 51.6468 121.337 51.9278V54.7478H120.506V51.9608C120.506 51.7988 120.485 51.6598 120.438 51.5508C120.391 51.4398 120.325 51.3518 120.243 51.2868C120.161 51.2218 120.061 51.1778 119.948 51.1498C119.831 51.1248 119.708 51.1108 119.577 51.1108C119.423 51.1108 119.264 51.1248 119.098 51.1498C118.934 51.1768 118.787 51.2088 118.663 51.2438V54.7478H117.83V50.7618C117.935 50.7268 118.053 50.6888 118.189 50.6518ZM125.975 54.7748C125.975 55.0948 125.934 55.3648 125.85 55.5798C125.768 55.7968 125.649 55.9728 125.493 56.1068C125.337 56.2398 125.145 56.3358 124.926 56.3938C124.702 56.4528 124.448 56.4838 124.163 56.4838C123.927 56.4838 123.677 56.4628 123.415 56.4198C123.151 56.3788 122.929 56.3318 122.747 56.2788L122.837 55.6068C123.02 55.6538 123.23 55.6988 123.472 55.7418C123.714 55.7868 123.935 55.8078 124.138 55.8078C124.49 55.8078 124.745 55.7338 124.906 55.5848C125.064 55.4388 125.142 55.1978 125.142 54.8678V54.6338C124.999 54.6628 124.842 54.6888 124.673 54.7118C124.503 54.7348 124.339 54.7468 124.181 54.7468C123.939 54.7468 123.706 54.7178 123.488 54.6588C123.27 54.5998 123.077 54.4908 122.91 54.3308C122.748 54.1708 122.617 53.9498 122.521 53.6688C122.426 53.3878 122.376 53.0258 122.376 52.5828C122.376 52.1788 122.429 51.8408 122.533 51.5648C122.637 51.2918 122.776 51.0708 122.954 50.9048C123.128 50.7388 123.335 50.6198 123.573 50.5458C123.812 50.4738 124.063 50.4368 124.327 50.4368C124.606 50.4368 124.887 50.4678 125.168 50.5328C125.448 50.5968 125.718 50.6738 125.976 50.7618V54.7748H125.975ZM125.141 51.2438C125.032 51.2128 124.905 51.1848 124.758 51.1558C124.61 51.1268 124.47 51.1108 124.332 51.1108C124.182 51.1108 124.041 51.1318 123.91 51.1738C123.779 51.2128 123.662 51.2888 123.561 51.4028C123.46 51.5118 123.384 51.6628 123.324 51.8538C123.268 52.0428 123.238 52.2898 123.238 52.5918C123.238 52.9078 123.262 53.1618 123.308 53.3538C123.355 53.5468 123.423 53.6978 123.511 53.8068C123.599 53.9138 123.704 53.9868 123.83 54.0218C123.952 54.0568 124.091 54.0728 124.239 54.0728C124.382 54.0728 124.528 54.0608 124.677 54.0378C124.827 54.0148 124.981 53.9888 125.14 53.9598V51.2438H125.141ZM131.492 48.9218C131.793 48.9218 132.068 48.9468 132.31 48.9998C132.555 49.0528 132.761 49.1408 132.929 49.2598C133.097 49.3788 133.226 49.5348 133.315 49.7248C133.406 49.9138 133.451 50.1468 133.451 50.4218C133.451 50.8148 133.375 51.1128 133.222 51.3218C133.067 51.5288 132.859 51.6788 132.595 51.7728C132.726 51.8078 132.857 51.8588 132.982 51.9268C133.109 51.9928 133.218 52.0828 133.31 52.1928C133.404 52.3038 133.482 52.4408 133.539 52.6008C133.596 52.7608 133.625 52.9528 133.625 53.1728C133.625 53.7158 133.451 54.1298 133.102 54.4148C132.753 54.6998 132.231 54.8428 131.533 54.8428C131.304 54.8428 131.024 54.8228 130.694 54.7818C130.364 54.7408 130.038 54.6838 129.714 54.6158V48.9208H131.492V48.9218ZM130.578 51.4798H131.541C131.865 51.4798 132.115 51.3998 132.295 51.2378C132.473 51.0758 132.561 50.8278 132.561 50.4938C132.561 50.1718 132.48 49.9408 132.311 49.8028C132.145 49.6658 131.877 49.5958 131.518 49.5958H130.579V51.4798H130.578ZM130.578 54.0638C130.742 54.0928 130.91 54.1148 131.08 54.1298C131.251 54.1438 131.396 54.1508 131.518 54.1508C131.743 54.1508 131.932 54.1298 132.084 54.0848C132.24 54.0418 132.361 53.9778 132.452 53.8878C132.543 53.7998 132.606 53.6968 132.645 53.5738C132.683 53.4508 132.702 53.3098 132.702 53.1538C132.702 52.8198 132.62 52.5698 132.452 52.4038C132.283 52.2378 131.982 52.1538 131.551 52.1538H130.578V54.0638ZM138.139 54.5198C137.918 54.6018 137.657 54.6758 137.352 54.7408C137.047 54.8038 136.738 54.8368 136.425 54.8368C136.194 54.8368 135.977 54.8118 135.766 54.7628C135.557 54.7118 135.375 54.6298 135.217 54.5128C135.064 54.3958 134.94 54.2398 134.848 54.0438C134.756 53.8478 134.711 53.6048 134.711 53.3118V50.5268H135.545V53.3218C135.545 53.4778 135.567 53.6108 135.613 53.7198C135.662 53.8268 135.724 53.9148 135.808 53.9838C135.89 54.0498 135.983 54.0968 136.091 54.1228C136.198 54.1498 136.315 54.1638 136.443 54.1638C136.595 54.1638 136.752 54.1498 136.91 54.1228C137.071 54.0978 137.203 54.0698 137.306 54.0388V50.5268H138.138V54.5198H138.139ZM142.031 51.1908C141.899 51.1618 141.747 51.1358 141.57 51.1148C141.395 51.0948 141.208 51.0858 141.009 51.0858C140.718 51.0858 140.489 51.1188 140.321 51.1818C140.153 51.2458 140.071 51.3708 140.071 51.5588C140.071 51.6698 140.126 51.7698 140.235 51.8578C140.344 51.9438 140.481 52.0318 140.644 52.1158C140.805 52.1998 140.981 52.2878 141.174 52.3798C141.365 52.4698 141.543 52.5768 141.705 52.6978C141.866 52.8208 142.002 52.9618 142.113 53.1238C142.222 53.2838 142.277 53.4778 142.277 53.7058C142.277 53.9108 142.236 54.0848 142.153 54.2268C142.072 54.3718 141.959 54.4868 141.815 54.5788C141.673 54.6688 141.505 54.7328 141.308 54.7758C141.115 54.8148 140.902 54.8368 140.67 54.8368C140.405 54.8368 140.151 54.8158 139.907 54.7758C139.664 54.7328 139.458 54.6818 139.286 54.6178L139.377 53.9518C139.453 53.9788 139.543 54.0068 139.645 54.0298C139.748 54.0528 139.855 54.0768 139.97 54.0958C140.086 54.1158 140.201 54.1308 140.316 54.1428C140.432 54.1548 140.546 54.1628 140.654 54.1628C140.906 54.1628 141.097 54.1318 141.222 54.0688C141.348 54.0078 141.41 53.8868 141.41 53.7058C141.41 53.5708 141.358 53.4558 141.252 53.3598C141.144 53.2638 141.009 53.1708 140.848 53.0848C140.685 52.9968 140.511 52.9088 140.324 52.8208C140.138 52.7328 139.965 52.6328 139.803 52.5238C139.641 52.4128 139.504 52.2818 139.399 52.1288C139.292 51.9768 139.239 51.7948 139.239 51.5858C139.239 51.3568 139.286 51.1698 139.379 51.0198C139.474 50.8718 139.601 50.7538 139.762 50.6698C139.925 50.5838 140.114 50.5248 140.331 50.4898C140.548 50.4548 140.776 50.4368 141.017 50.4368C141.222 50.4368 141.421 50.4468 141.619 50.4658C141.817 50.4868 141.98 50.5088 142.105 50.5318L142.031 51.1908ZM144.266 48.9468C144.266 49.1048 144.221 49.2278 144.129 49.3158C144.037 49.4018 143.907 49.4468 143.738 49.4468C143.572 49.4468 143.443 49.4018 143.349 49.3158C143.256 49.2278 143.208 49.1048 143.208 48.9468C143.208 48.7848 143.256 48.6578 143.349 48.5698C143.443 48.4838 143.572 48.4388 143.738 48.4388C144.088 48.4388 144.266 48.6088 144.266 48.9468ZM144.156 50.5248V54.7478H143.326V50.5248H144.156ZM145.924 50.6518C146.059 50.6128 146.203 50.5778 146.356 50.5468C146.51 50.5138 146.67 50.4878 146.837 50.4668C147.005 50.4468 147.171 50.4378 147.337 50.4378C147.582 50.4378 147.811 50.4628 148.024 50.5118C148.235 50.5608 148.419 50.6428 148.577 50.7578C148.732 50.8708 148.854 51.0258 148.942 51.2168C149.032 51.4098 149.073 51.6468 149.073 51.9278V54.7478H148.243V51.9608C148.243 51.7988 148.221 51.6598 148.175 51.5508C148.126 51.4398 148.06 51.3518 147.978 51.2868C147.898 51.2228 147.797 51.1778 147.685 51.1498C147.568 51.1248 147.445 51.1108 147.312 51.1108C147.158 51.1108 146.999 51.1248 146.833 51.1498C146.671 51.1768 146.524 51.2088 146.399 51.2438V54.7478H145.566V50.7618C145.67 50.7268 145.788 50.6888 145.924 50.6518ZM150.975 52.8908C150.982 53.1018 151.004 53.2868 151.049 53.4478C151.094 53.6088 151.166 53.7408 151.263 53.8458C151.364 53.9508 151.494 54.0298 151.659 54.0818C151.825 54.1348 152.033 54.1618 152.286 54.1618C152.372 54.1618 152.47 54.1558 152.575 54.1478C152.677 54.1378 152.782 54.1268 152.882 54.1068C152.984 54.0908 153.079 54.0718 153.17 54.0558C153.261 54.0358 153.336 54.0208 153.398 54.0028L153.472 54.6488C153.312 54.6958 153.119 54.7388 152.89 54.7778C152.663 54.8148 152.433 54.8348 152.195 54.8348C151.882 54.8348 151.598 54.8018 151.34 54.7388C151.082 54.6748 150.861 54.5588 150.683 54.3928C150.504 54.2248 150.364 53.9998 150.264 53.7168C150.164 53.4338 150.114 53.0718 150.114 52.6348C150.114 52.2248 150.155 51.8808 150.241 51.5998C150.326 51.3208 150.448 51.0938 150.607 50.9218C150.768 50.7498 150.96 50.6248 151.188 50.5488C151.416 50.4728 151.669 50.4358 151.95 50.4358C152.229 50.4358 152.471 50.4768 152.674 50.5628C152.878 50.6468 153.048 50.7658 153.181 50.9168C153.314 51.0708 153.415 51.2548 153.48 51.4718C153.541 51.6868 153.572 51.9288 153.572 52.1988V52.8898H150.975V52.8908ZM152.771 52.2768C152.771 51.4638 152.485 51.0598 151.919 51.0598C151.602 51.0598 151.374 51.1618 151.231 51.3648C151.089 51.5698 151.005 51.8728 150.982 52.2768H152.771ZM157.2 51.1908C157.068 51.1618 156.916 51.1358 156.74 51.1148C156.564 51.0948 156.377 51.0858 156.179 51.0858C155.888 51.0858 155.658 51.1188 155.491 51.1818C155.324 51.2458 155.24 51.3708 155.24 51.5588C155.24 51.6698 155.297 51.7698 155.404 51.8578C155.515 51.9438 155.651 52.0318 155.814 52.1158C155.976 52.1998 156.152 52.2878 156.345 52.3798C156.534 52.4698 156.713 52.5768 156.874 52.6978C157.036 52.8208 157.172 52.9618 157.282 53.1238C157.391 53.2838 157.447 53.4778 157.447 53.7058C157.447 53.9108 157.405 54.0848 157.323 54.2268C157.241 54.3718 157.13 54.4868 156.985 54.5788C156.842 54.6688 156.674 54.7328 156.479 54.7758C156.284 54.8148 156.071 54.8368 155.84 54.8368C155.576 54.8368 155.322 54.8158 155.078 54.7758C154.834 54.7328 154.627 54.6818 154.455 54.6178L154.547 53.9518C154.623 53.9788 154.713 54.0068 154.815 54.0298C154.917 54.0528 155.026 54.0768 155.139 54.0958C155.256 54.1158 155.371 54.1308 155.485 54.1428C155.604 54.1548 155.715 54.1628 155.823 54.1628C156.077 54.1628 156.268 54.1318 156.391 54.0688C156.518 54.0078 156.582 53.8868 156.582 53.7058C156.582 53.5708 156.527 53.4558 156.422 53.3598C156.314 53.2638 156.18 53.1708 156.02 53.0848C155.854 52.9968 155.682 52.9088 155.495 52.8208C155.308 52.7328 155.134 52.6328 154.974 52.5238C154.812 52.4128 154.677 52.2818 154.571 52.1288C154.462 51.9768 154.41 51.7948 154.41 51.5858C154.41 51.3568 154.456 51.1698 154.549 51.0198C154.643 50.8718 154.77 50.7538 154.932 50.6698C155.094 50.5838 155.284 50.5248 155.5 50.4898C155.716 50.4548 155.946 50.4368 156.188 50.4368C156.392 50.4368 156.589 50.4468 156.789 50.4658C156.986 50.4868 157.148 50.5088 157.275 50.5318L157.2 51.1908ZM160.855 51.1908C160.724 51.1618 160.57 51.1358 160.396 51.1148C160.218 51.0948 160.032 51.0858 159.834 51.0858C159.544 51.0858 159.313 51.1188 159.146 51.1818C158.978 51.2458 158.896 51.3708 158.896 51.5588C158.896 51.6698 158.952 51.7698 159.058 51.8578C159.169 51.9438 159.306 52.0318 159.469 52.1158C159.63 52.1998 159.808 52.2878 160 52.3798C160.19 52.4698 160.37 52.5768 160.53 52.6978C160.69 52.8208 160.827 52.9618 160.938 53.1238C161.048 53.2838 161.102 53.4778 161.102 53.7058C161.102 53.9108 161.059 54.0848 160.978 54.2268C160.897 54.3718 160.786 54.4868 160.639 54.5788C160.497 54.6688 160.33 54.7328 160.134 54.7758C159.94 54.8148 159.727 54.8368 159.494 54.8368C159.232 54.8368 158.976 54.8158 158.732 54.7758C158.489 54.7328 158.283 54.6818 158.111 54.6178L158.202 53.9518C158.279 53.9788 158.368 54.0068 158.47 54.0298C158.571 54.0528 158.682 54.0768 158.795 54.0958C158.911 54.1158 159.026 54.1308 159.141 54.1428C159.258 54.1548 159.371 54.1628 159.479 54.1628C159.731 54.1628 159.923 54.1318 160.047 54.0688C160.172 54.0078 160.236 53.8868 160.236 53.7058C160.236 53.5708 160.183 53.4558 160.076 53.3598C159.969 53.2638 159.834 53.1708 159.674 53.0848C159.51 52.9968 159.336 52.9088 159.149 52.8208C158.962 52.7328 158.79 52.6328 158.628 52.5238C158.466 52.4128 158.331 52.2818 158.226 52.1288C158.117 51.9768 158.064 51.7948 158.064 51.5858C158.064 51.3568 158.111 51.1698 158.204 51.0198C158.299 50.8718 158.426 50.7538 158.587 50.6698C158.75 50.5838 158.939 50.5248 159.155 50.4898C159.373 50.4548 159.601 50.4368 159.843 50.4368C160.046 50.4368 160.245 50.4468 160.443 50.4658C160.64 50.4868 160.804 50.5088 160.929 50.5318L160.855 51.1908ZM162.719 52.8908C162.725 53.1018 162.746 53.2868 162.791 53.4478C162.836 53.6088 162.908 53.7408 163.006 53.8458C163.106 53.9508 163.237 54.0298 163.401 54.0818C163.567 54.1348 163.775 54.1618 164.028 54.1618C164.115 54.1618 164.212 54.1558 164.317 54.1478C164.421 54.1378 164.524 54.1268 164.625 54.1068C164.728 54.0908 164.823 54.0718 164.914 54.0558C165.005 54.0358 165.079 54.0208 165.14 54.0028L165.215 54.6488C165.056 54.6958 164.863 54.7388 164.633 54.7778C164.407 54.8148 164.175 54.8348 163.937 54.8348C163.624 54.8348 163.339 54.8018 163.082 54.7388C162.826 54.6748 162.605 54.5588 162.427 54.3928C162.246 54.2248 162.107 53.9998 162.006 53.7168C161.906 53.4338 161.856 53.0718 161.856 52.6348C161.856 52.2248 161.899 51.8808 161.983 51.5998C162.069 51.3208 162.191 51.0938 162.352 50.9218C162.508 50.7498 162.703 50.6248 162.93 50.5488C163.159 50.4728 163.41 50.4358 163.692 50.4358C163.974 50.4358 164.213 50.4768 164.416 50.5628C164.62 50.6468 164.79 50.7658 164.923 50.9168C165.058 51.0708 165.157 51.2548 165.222 51.4718C165.283 51.6868 165.314 51.9288 165.314 52.1988V52.8898H162.719V52.8908ZM164.514 52.2768C164.514 51.4638 164.23 51.0598 163.662 51.0598C163.347 51.0598 163.119 51.1618 162.974 51.3648C162.831 51.5698 162.749 51.8728 162.726 52.2768H164.514ZM168.943 51.1908C168.812 51.1618 168.66 51.1358 168.482 51.1148C168.306 51.0948 168.119 51.0858 167.921 51.0858C167.631 51.0858 167.401 51.1188 167.234 51.1818C167.066 51.2458 166.983 51.3708 166.983 51.5588C166.983 51.6698 167.038 51.7698 167.145 51.8578C167.256 51.9438 167.391 52.0318 167.555 52.1158C167.717 52.1998 167.893 52.2878 168.086 52.3798C168.277 52.4698 168.455 52.5768 168.617 52.6978C168.777 52.8208 168.914 52.9618 169.023 53.1238C169.134 53.2838 169.189 53.4778 169.189 53.7058C169.189 53.9108 169.146 54.0848 169.064 54.2268C168.984 54.3718 168.871 54.4868 168.726 54.5788C168.583 54.6688 168.416 54.7328 168.222 54.7758C168.026 54.8148 167.814 54.8368 167.583 54.8368C167.319 54.8368 167.064 54.8158 166.819 54.7758C166.575 54.7328 166.37 54.6818 166.198 54.6178L166.29 53.9518C166.366 53.9788 166.454 54.0068 166.558 54.0298C166.66 54.0528 166.767 54.0768 166.882 54.0958C166.999 54.1158 167.112 54.1308 167.228 54.1428C167.345 54.1548 167.457 54.1628 167.565 54.1628C167.818 54.1628 168.009 54.1318 168.134 54.0688C168.259 54.0078 168.323 53.8868 168.323 53.7058C168.323 53.5708 168.268 53.4558 168.163 53.3598C168.056 53.2638 167.922 53.1708 167.761 53.0848C167.597 52.9968 167.423 52.9088 167.238 52.8208C167.05 52.7328 166.875 52.6328 166.714 52.5238C166.554 52.4128 166.418 52.2818 166.312 52.1288C166.204 51.9768 166.151 51.7948 166.151 51.5858C166.151 51.3568 166.197 51.1698 166.292 51.0198C166.384 50.8718 166.512 50.7538 166.673 50.6698C166.837 50.5838 167.027 50.5248 167.241 50.4898C167.458 50.4548 167.687 50.4368 167.929 50.4368C168.133 50.4368 168.333 50.4468 168.531 50.4658C168.727 50.4868 168.891 50.5088 169.016 50.5318L168.943 51.1908Z" fill="url(#paint2_linear_965_261)"/>
</g>
</g>
<defs>
<linearGradient id="paint0_linear_965_261" x1="-33.0698" y1="-15.6651" x2="267.614" y2="81.3793" gradientUnits="userSpaceOnUse">
<stop stop-color="#FBF7BF"/>
<stop offset="0.0695" stop-color="#F2E9A8"/>
<stop offset="0.1994" stop-color="#DEC874"/>
<stop offset="0.2471" stop-color="#E5D284"/>
<stop offset="0.3404" stop-color="#F5EDAF"/>
<stop offset="0.3712" stop-color="#FBF7BF"/>
<stop offset="0.4455" stop-color="#F9E683"/>
<stop offset="0.5004" stop-color="#F8DA5B"/>
<stop offset="0.5171" stop-color="#EBCA53"/>
<stop offset="0.55" stop-color="#CA9F40"/>
<stop offset="0.5848" stop-color="#A16C29"/>
<stop offset="0.6851" stop-color="#AA7029"/>
<stop offset="0.7879" stop-color="#B9772A"/>
<stop offset="0.8712" stop-color="#C37B35"/>
<stop offset="1" stop-color="#DB874D"/>
</linearGradient>
<linearGradient id="paint1_linear_965_261" x1="89.4666" y1="16.1299" x2="126.845" y2="16.1299" gradientUnits="userSpaceOnUse">
<stop stop-color="#515759"/>
<stop offset="0.1311" stop-color="#929697"/>
<stop offset="0.2423" stop-color="#C2C5C5"/>
<stop offset="0.3269" stop-color="#E0E1E1"/>
<stop offset="0.3748" stop-color="#EBECEC"/>
<stop offset="0.4359" stop-color="#E1E3E3"/>
<stop offset="0.5388" stop-color="#C7C9CC"/>
<stop offset="0.6701" stop-color="#9DA0A6"/>
<stop offset="0.6918" stop-color="#95989F"/>
<stop offset="1" stop-color="#AEADB3"/>
</linearGradient>
<linearGradient id="paint2_linear_965_261" x1="-80.8973" y1="52.1189" x2="249.074" y2="52.1189" gradientUnits="userSpaceOnUse">
<stop stop-color="#515759"/>
<stop offset="0.1311" stop-color="#929697"/>
<stop offset="0.2423" stop-color="#C2C5C5"/>
<stop offset="0.3269" stop-color="#E0E1E1"/>
<stop offset="0.3748" stop-color="#EBECEC"/>
<stop offset="0.4359" stop-color="#E1E3E3"/>
<stop offset="0.5388" stop-color="#C7C9CC"/>
<stop offset="0.6701" stop-color="#9DA0A6"/>
<stop offset="0.6918" stop-color="#95989F"/>
<stop offset="1" stop-color="#AEADB3"/>
</linearGradient>
<clipPath id="clip0_965_261">
<rect width="171.639" height="56.5" fill="white"/>
</clipPath>
</defs>
</svg>
